<?xml version="1.0" encoding="iso-8859-1"?>
<!-- Generator: Adobe Illustrator 19.0.0, SVG Export Plug-In . SVG Version: 6.00 Build 0)  -->
<svg version="1.1" id="Layer_1" xmlns="http://www.w3.org/2000/svg" xmlns:xlink="http://www.w3.org/1999/xlink" x="0px" y="0px"
	 viewBox="0 0 512 512" style="enable-background:new 0 0 512 512;" xml:space="preserve">
<g>
	<g>
		<path d="M437.019,74.982C388.667,26.628,324.381,0,256,0C187.62,0,123.333,26.628,74.98,74.982C26.628,123.333,0,187.619,0,256
			s26.628,132.667,74.98,181.019C123.333,485.372,187.62,512,256,512c68.381,0,132.667-26.628,181.019-74.981
			C485.372,388.667,512,324.381,512,256S485.372,123.333,437.019,74.982z M256,491.602c-129.911,0-235.602-105.69-235.602-235.602
			S126.089,20.398,256,20.398S491.602,126.089,491.602,256S385.911,491.602,256,491.602z"/>
	</g>
</g>
<g>
	<g>
		<path d="M334.15,116.36c-40.379-28.44-89.413-39.453-138.076-31.01c-48.661,8.441-91.123,35.329-119.562,75.707
			c-11.737,16.664-21.184,34.742-28.076,53.727c-1.922,5.294,0.812,11.146,6.107,13.067c5.292,1.922,11.145-0.812,13.067-6.106
			c6.276-17.288,14.882-33.754,25.579-48.94c25.302-35.925,63.079-59.845,106.372-67.356c43.294-7.512,86.92,2.287,122.842,27.59
			c58.408,41.137,72.456,122.122,31.32,180.529c-32.262,45.808-95.776,56.825-141.581,24.563
			c-35.725-25.162-44.32-74.697-19.157-110.423c9.437-13.4,23.527-22.322,39.676-25.124c16.147-2.799,32.419,0.854,45.82,10.291
			c10.274,7.236,17.114,18.04,19.263,30.421s-0.655,24.858-7.89,35.132c-11.304,16.046-33.554,19.908-49.601,8.606
			c-11.919-8.394-14.786-24.921-6.391-36.839c2.939-4.173,7.328-6.952,12.357-7.825c5.028-0.876,10.097,0.264,14.27,3.206
			c2.893,2.038,4.821,5.08,5.425,8.566c0.605,3.487-0.185,7.001-2.222,9.893c-3.243,4.606-2.14,10.968,2.465,14.213
			c4.606,3.242,10.968,2.141,14.213-2.465c10.684-15.168,7.034-36.201-8.134-46.885c-8.628-6.076-19.104-8.428-29.504-6.626
			c-10.398,1.804-19.47,7.548-25.548,16.176c-7.204,10.229-9.993,22.65-7.855,34.976c2.139,12.327,8.949,23.083,19.178,30.286
			c25.243,17.778,60.244,11.707,78.024-13.536c10.374-14.728,14.39-32.616,11.312-50.366c-3.08-17.75-12.888-33.238-27.615-43.612
			c-17.854-12.575-39.535-17.447-61.052-13.711c-21.516,3.732-40.291,15.62-52.867,33.475
			c-31.639,44.92-20.833,107.206,24.088,138.846c21.31,15.009,45.81,22.217,70.084,22.216c38.378-0.001,76.19-18.019,99.921-51.71
			C418.014,257.709,401.752,163.974,334.15,116.36z"/>
	</g>
</g>
<g>
	<g>
		<path d="M50.375,246.925c-5.571-0.768-10.735,3.105-11.518,8.683c-1.285,9.156-2.019,18.492-2.184,27.752
			c-0.099,5.631,4.386,10.278,10.018,10.377c0.061,0.001,0.121,0.001,0.183,0.001c5.548,0,10.096-4.449,10.194-10.02
			c0.149-8.434,0.817-16.937,1.988-25.274C59.84,252.865,55.953,247.708,50.375,246.925z"/>
	</g>
</g>
<g>
</g>
<g>
</g>
<g>
</g>
<g>
</g>
<g>
</g>
<g>
</g>
<g>
</g>
<g>
</g>
<g>
</g>
<g>
</g>
<g>
</g>
<g>
</g>
<g>
</g>
<g>
</g>
<g>
</g>
</svg>
